<svg width="280" height="320" viewBox="0 0 280 320" fill="none" xmlns="http://www.w3.org/2000/svg">
  <!-- Happy bounding dog -->
  <g opacity="1">
    <!-- Body (tilted for bounding pose) -->
    <ellipse cx="140" cy="180" rx="60" ry="75" fill="#FF8E72" transform="rotate(-10 140 180)"/>

    <!-- Head (tilted up, happy) -->
    <circle cx="140" cy="110" r="50" fill="#FF8E72"/>

    <!-- Floppy ears -->
    <ellipse cx="110" cy="100" rx="20" ry="45" fill="#FF8E72" transform="rotate(-25 110 100)"/>
    <ellipse cx="170" cy="100" rx="20" ry="45" fill="#FF8E72" transform="rotate(25 170 100)"/>

    <!-- Snout -->
    <ellipse cx="140" cy="125" rx="28" ry="22" fill="#FFB5A0"/>

    <!-- Nose -->
    <ellipse cx="140" cy="130" rx="12" ry="10" fill="#2C2826"/>

    <!-- Happy eyes (closed, smiling) -->
    <path d="M 125 105 Q 130 110 135 105" stroke="#2C2826" stroke-width="3" fill="none" stroke-linecap="round"/>
    <path d="M 145 105 Q 150 110 155 105" stroke="#2C2826" stroke-width="3" fill="none" stroke-linecap="round"/>

    <!-- Tongue out (happy!) -->
    <ellipse cx="140" cy="145" rx="8" ry="12" fill="#FF6B4A"/>

    <!-- Legs (in bounding position) -->
    <!-- Front legs -->
    <ellipse cx="115" cy="240" rx="14" ry="40" fill="#FF8E72" transform="rotate(20 115 240)"/>
    <ellipse cx="145" cy="235" rx="14" ry="40" fill="#FF8E72" transform="rotate(-15 145 235)"/>

    <!-- Back legs -->
    <ellipse cx="130" cy="260" rx="14" ry="35" fill="#FF8E72" transform="rotate(35 130 260)"/>
    <ellipse cx="160" cy="255" rx="14" ry="35" fill="#FF8E72" transform="rotate(-20 160 255)"/>

    <!-- Tail (wagging up) -->
    <path d="M 195 170 Q 220 150 225 120" stroke="#FF8E72" stroke-width="18" stroke-linecap="round" fill="none"/>
  </g>
</svg>
