<svg width="300" height="350" viewBox="0 0 300 350" fill="none" xmlns="http://www.w3.org/2000/svg">
  <!-- Vet examining a dog with stethoscope -->
  <g opacity="1">
    <!-- Dog (sitting, being examined) -->
    <ellipse cx="150" cy="220" rx="50" ry="60" fill="#FF8E72"/>
    <circle cx="150" cy="160" r="45" fill="#FF8E72"/>
    <ellipse cx="125" cy="145" rx="18" ry="35" fill="#FF8E72" transform="rotate(-15 125 145)"/>
    <ellipse cx="175" cy="145" rx="18" ry="35" fill="#FF8E72" transform="rotate(15 175 145)"/>
    <ellipse cx="150" cy="175" rx="25" ry="18" fill="#FFB5A0"/>
    <ellipse cx="150" cy="178" rx="10" ry="8" fill="#2C2826"/>
    <circle cx="138" cy="160" r="5" fill="#2C2826"/>
    <circle cx="162" cy="160" r="5" fill="#2C2826"/>
    <circle cx="139" cy="159" r="2" fill="white"/>
    <circle cx="163" cy="159" r="2" fill="white"/>

    <!-- Vet (simple silhouette) -->
    <circle cx="220" cy="140" r="25" fill="#5A5450"/>
    <ellipse cx="220" cy="200" rx="35" ry="50" fill="#8B7E74"/>

    <!-- Arm reaching toward dog -->
    <ellipse cx="190" cy="180" rx="12" ry="35" fill="#5A5450" transform="rotate(-45 190 180)"/>

    <!-- Stethoscope -->
    <path d="M 215 150 Q 200 160 185 165" stroke="#2C2826" stroke-width="3" fill="none" stroke-linecap="round"/>
    <circle cx="185" cy="165" r="6" fill="#2C2826"/>
    <path d="M 215 150 L 215 135" stroke="#2C2826" stroke-width="3" stroke-linecap="round"/>
    <circle cx="210" cy="130" r="4" fill="#2C2826"/>
    <circle cx="220" cy="130" r="4" fill="#2C2826"/>
  </g>
</svg>
